PathFileType	4	(X/Y/Z)	C:/Users/beibeiliu/ov580/test_trc\sequence.42_training_dense_left.trc
DataRate	CameraRate	NumFrames	NumMarkers	Units	OrigDataRate	OrigDataStartFrame	OrigNumFrames
120	120	24	19	mm	120	28	81
Frame#	Time	ThumbCMC			ThumbMCP			ThumbIP			ThumbTip			IndexMCP			IndexPIP			IndexTip			MiddleMCP			MiddlePIP			MiddleTip			RingMCP			RingPIP			RingTip			PinkyMCP			PinkyPIP			PinkyTip			BackHand1			BackHand2			BackHand3	
		X0	Y0	Z0	X1	Y1	Z1	X2	Y2	Z2	X3	Y3	Z3	X4	Y4	Z4	X5	Y5	Z5	X6	Y6	Z6	X7	Y7	Z7	X8	Y8	Z8	X9	Y9	Z9	X10	Y10	Z10	X11	Y11	Z11	X12	Y12	Z12	X13	Y13	Z13	X14	Y14	Z14	X15	Y15	Z15	X16	Y16	Z16	X17	Y17	Z17	X18	Y18	Z18	
27	0.225	-237.36	47.4228	100.331	-229.997	73.6492	84.1896	-220.164	84.6015	60.853	-207.966	94.9782	46.4439	-226.175	32.8962	38.8191	-215.746	46.3305	13.0216	-197.206	62.8681	9.03571	-209.64	19.9521	32.4105	-191.65	30.805	12.6462	-178.239	61.4291	14.746	-193.289	9.95525	45.9542	-179.108	26.438	24.504	-169.904	47.5547	25.0853	-176.119	5.9378	63.3741	-167.359	18.0972	46.3065	-163.048	43.6745	45.1406	-211.788	6.1184	87.6506	-216.521	1.28455	113.631	-234.071	15.3402	90.7212	
28	0.233333	-240.011	45.3851	93.798	-232.982	66.1952	78.6458	-226.769	78.2341	57.225	-217.005	88.54	41.7239	-218.898	24.5041	35.3598	-208.452	34.2499	13.4284	-196.03	62.0987	5.14729	-200.889	16.9828	37.8072	-185.727	30.3102	11.6531	-177.053	56.4281	12.6007	-182.684	14.9193	46.0917	-174.53	29.6875	24.1448	-171.649	53.3439	22.4596	-169.584	17.5799	65.0248	-158.274	32.1407	46.6552	-163.226	56.3103	43.9932	-196.338	7.6028	87.9423	-207.877	6.84915	116.774	-226.156	11.4868	94.0065	
29	0.241667	-233.473	43.4607	95.174	-228.299	61.1856	70.9621	-229.855	72.8843	49.9483	-219.312	82.9896	31.5831	-206.168	16.5417	40.7676	-199.29	23.9737	13.4561	-196.8	52.0484	1.88578	-183.082	11.8823	41.3195	-174.039	24.0218	15.1386	-176.169	56.8416	10.9081	-171.116	17.1337	51.2571	-163.696	28.5576	27.8494	-163.617	53.2078	21.9393	-160.629	26.1957	67.1235	-151.989	38.0216	45.4751	-163.669	59.5764	41.4923	-188.994	16.1082	95.1279	-195.563	17.2272	117.639	-215.037	13.1749	97.5927	
30	0.25	-222.556	39.1245	91.2975	-226.05	55.0974	63.8921	-220.907	62.0714	46.3855	-213.058	68.9986	23.8437	-198.975	5.93624	39.4033	-188.884	11.7362	17.7995	-188.653	40.4025	1.80235	-174.086	8.3539	47.4415	-164.316	15.7366	17.5731	-169.045	44.4605	10.5033	-160.469	13.6957	53.5583	-153.497	25.0161	28.2635	-165.011	46.8447	19.1949	-149.919	28.0798	66.9826	-144.732	36.1142	46.5681	-160.547	58.8417	36.4024	-173.069	17.9475	96.5341	-183.744	23.9592	121.502	-202.061	13.4678	100.515	
31	0.258333	-221.457	35.182	89.4657	-225.073	48.7141	59.4691	-219.857	51.2378	40.6737	-216.697	57.123	16.531	-192.292	-2.22325	40.2958	-189.274	0.569929	15.2093	-191.063	25.4214	-1.31447	-170.958	-1.58514	42.267	-164.405	6.06035	14.9352	-172.655	34.2676	3.91479	-155.948	11.0013	53.7453	-152.859	13.7117	28.2991	-162.263	36.9065	14.1932	-146.213	26.0538	66.6655	-141	31.1556	40.3867	-154.482	46.085	29.7729	-170.756	16.6446	95.1693	-182.003	25.1269	118.723	-201.687	11.1858	97.0525	
32	0.266667	-220.971	29.191	81.5087	-223.871	40.8797	54.4756	-223.23	44.3241	31.4054	-214.276	47.2294	10.6147	-196.452	-8.39893	38.1084	-188.131	-6.04877	9.1636	-189.895	17.7594	-6.36319	-170.162	-5.36503	39.1393	-162.647	-2.4462	9.42208	-173.186	25.5798	-1.90303	-158.599	3.16439	46.5902	-151.879	6.64067	21.1151	-161.624	28.2296	7.30238	-144.686	20.4497	57.7671	-144.654	21.6848	32.781	-158.407	40.318	20.795	-168.92	11.9456	87.553	-180.939	21.1441	111.562	-195.437	8.87923	93.0696	
33	0.275	-225.607	22.6474	73.9621	-227.063	35.5064	45.3033	-223.782	39.4596	20.2938	-216.802	45.0251	4.32834	-192.817	-9.70204	27.3046	-186.847	-6.26747	-0.559092	-192.159	18.8798	-14.0865	-171.933	-9.24332	25.7211	-164.714	-2.39563	-0.667897	-174.131	24.741	-10.3302	-159.043	0.233482	34.2071	-154.133	6.74293	11.0331	-164.945	30.7445	-0.928488	-144.411	15.649	45.8998	-146.32	20.8783	23.7134	-156.086	38.8562	11.3881	-172.977	5.81686	77.2468	-179.911	11.8171	99.4446	-196.331	-0.0850873	83.0258	
34	0.283333	-224.864	20.6616	66.2081	-230.484	39.3871	40.8729	-225.555	46.7305	20.0904	-215.308	55.3866	0.693183	-195.06	-2.143	13.7297	-187.059	10.4619	-14.6123	-190.224	32.4895	-21.6821	-171.592	-1.57734	11.581	-164.416	13.9407	-12.9927	-176.788	43.5103	-14.3042	-157.05	7.78256	25.2955	-156.381	18.6398	-1.74969	-165.902	44.6561	-6.03516	-147.512	22.0755	42.1704	-145.258	30.6841	15.6332	-160.363	48.3484	7.8313	-173.813	5.04002	66.1632	-181.452	7.65531	92.8047	-196.148	-1.64758	70.2822	
35	0.291667	-225.518	27.4726	60.9786	-226.725	50.0955	37.1401	-221.79	62.2485	21.835	-211.987	77.0588	6.36631	-192.391	18.0663	1.60659	-187.049	37.8095	-22.3547	-187.665	61.3667	-22.3024	-164.633	20.1773	4.1079	-161.448	39.7581	-17.5433	-171.4	68.5928	-14.4293	-153.285	24.9692	18.6959	-150.742	43.3778	-4.27899	-161.002	65.8653	-3.19709	-142.267	32.6143	34.3394	-141.16	49.6642	15.6989	-152.594	68.2969	14.7493	-168.917	11.0826	55.9608	-178.35	6.06127	81.5907	-196.382	5.65354	60.0257	
36	0.3	-221.755	33.22	55.4877	-221.977	59.6146	38.3596	-218.007	75.6489	25.8389	-212.554	96.2934	11.2886	-182.759	39.2107	-0.934362	-176.288	57.1836	-18.7886	-176.961	85.3269	-16.5757	-161.397	38.0893	2.84601	-154.595	59.2532	-16.236	-158.216	89.7319	-6.30664	-148.85	39.9544	18.8276	-143.42	59.2631	0.886272	-156.478	87.5538	5.79649	-138.773	45.3128	33.7928	-135.912	63.3713	20.8984	-147.699	85.8076	24.0044	-164.285	19.0599	54.3626	-175.495	8.39576	72.4092	-191.905	12.6554	51.4092	
37	0.308333	-214.699	37.5639	51.6036	-217.375	65.935	38.6418	-214.279	83.3741	30.7373	-208.833	105.19	19.8937	-175.453	53.1176	-4.30781	-170.099	75.0417	-16.8765	-173.455	101.208	-10.7085	-154.43	49.7236	5.64504	-145.518	74.5886	-9.72827	-150.014	102.009	2.91672	-141.454	48.8525	19.9424	-138.794	75.0182	4.42928	-147.002	99.5864	17.9096	-133.412	48.3187	41.0484	-126.124	70.8127	29.4081	-139.262	90.1896	27.5618	-165.042	21.4894	50.2475	-169.819	8.59447	69.4992	-190.346	16.8317	42.7543	
38	0.316667	-209.47	40.3904	52.3096	-215.494	71.6605	45.0082	-209.554	92.1017	35.9769	-199.016	109.362	32.7631	-172.581	58.9511	1.55447	-165.209	85.2495	-11.5816	-160.794	109.435	0.000747551	-152.587	56.434	5.59719	-138.086	83.0344	-2.44949	-142.709	109.882	16.4269	-138.27	53.8471	19.6399	-130.273	79.0799	12.7826	-139.12	100.551	26.8195	-128.372	50.6922	40.9159	-118.749	71.5112	36.2885	-132.098	95.9839	41.6844	-159.086	23.1928	50.325	-173.168	8.9698	63.498	-188.573	19.2504	40.7333	
39	0.325	-207.016	45.8524	56.0264	-204.974	74.66	54.6854	-195.629	99.6219	46.9045	-180.621	118.948	44.1259	-163.375	67.7514	5.5865	-153.05	87.4668	-1.01393	-147.079	113.625	14.6762	-141.423	58.5771	11.8234	-127.623	84.7576	9.67843	-127.554	104.643	29.0203	-134.934	52.1653	25.5498	-121.595	77.3569	25.0943	-127.762	97.321	44.671	-123.129	44.6782	45.2342	-113.631	65.7646	44.4545	-124.136	87.1888	54.1997	-163.251	20.4167	47.3189	-175.104	7.0621	63.5041	-191.937	23.7807	42.9836	
40	0.333333	-210.444	59.9343	59.8764	-195.924	84.7182	62.0249	-181.846	103.899	58.9508	-163.777	118.885	59.2517	-158.829	68.7683	11.886	-142.427	88.2637	9.70677	-129.461	104.417	26.2248	-141.892	55.3718	16.9738	-120.989	74.932	17.0742	-119.339	96.8158	39.6601	-134.098	44.07	29.8557	-117.113	65.8672	30.9306	-121.074	85.6612	53.3079	-131.135	32.7754	46.5042	-112.911	49.4093	50.1547	-115.504	73.2291	58.6204	-167.885	18.5172	45.9838	-189.289	7.78816	60.5732	-197.413	28.8994	43.1202	
41	0.341667	-215.198	71.6021	66.2181	-194.951	89.5542	71.8827	-172.912	108.596	66.9324	-152.407	113.978	64.6671	-169.696	75.5093	16.3352	-147.526	87.758	11.566	-128.241	98.7735	27.8752	-151.978	56.3798	16.0605	-127.276	71.3826	16.6627	-116.109	84.3044	43.3711	-147.274	41.0015	27.7626	-126.867	60.37	28.7166	-122.862	76.8424	50.4704	-142.027	26.4519	43.8936	-123.698	42.3134	46.6781	-118.998	63.4714	62.0438	-187.409	25.2	45.1097	-208.266	19.4948	59.9385	-213.099	43.1017	46.9993	
42	0.35	-217.553	86.107	71.3905	-194.475	104.539	72.5387	-170.644	108.249	61.4993	-151.853	110.434	56.8815	-190.186	89.5804	13.1924	-162.257	97.4319	6.10115	-138.613	104.851	20.0645	-175.593	66.7493	7.66936	-148.491	73.9771	4.5699	-131.205	88.1852	29.1759	-172.536	48.9194	18.3443	-145.121	59.5182	16.6185	-135.377	74.8397	35.7782	-167.379	32.0791	31.9281	-146.055	44.306	30.224	-135.943	62.3506	43.0934	-212.265	39.1604	45.7615	-227.685	34.7909	64.6847	-229.421	60.5574	52.903	
43	0.358333	-210.769	108.115	80.2494	-183.46	111.366	68.7053	-165.305	113.084	55.8301	-145.816	107.294	38.3582	-204.062	106.698	12.7206	-183.548	113.361	-1.50364	-156.499	109.234	1.82743	-205.025	85.7978	6.90403	-176.755	90.6367	-9.45874	-152.61	88.3439	6.95068	-201.841	70.0396	8.71074	-179.234	71.9394	-0.947136	-154.903	74.9714	15.4648	-199.523	52.3873	19.3233	-178.023	53.9613	12.2615	-159.773	64.7127	20.9876	-230.768	67.7258	48.7597	-240.679	60.4036	73.8851	-236.798	91.6662	66.074	
44	0.366667	-196.516	117.85	88.2833	-167.195	117.089	70.2739	-152.692	115.126	47.3992	-147.905	104.619	30.1461	-202.122	135.493	24.5406	-186.005	133.953	3.33491	-160.331	118.023	-0.0944449	-214.498	119.151	15.983	-197.631	114.168	-8.62137	-167.562	101.174	-2.26482	-219.645	98.9194	12.2454	-201.692	96.2875	-3.68208	-174.618	86.4549	4.11087	-222.82	79.3845	24.6287	-201.902	74.9227	6.49547	-177.928	79.2662	12.6008	-234.9	96.7003	61.2594	-238.324	94.4496	85.6613	-227.092	120.884	76.9675	
45	0.375	-182.103	119.292	91.4898	-158.848	111.859	69.3943	-150.239	107.134	51.4717	-143.04	101.091	32.8072	-189.213	148.969	33.6064	-172.768	144.966	11.1737	-156.043	124.976	3.76692	-208.053	138.565	21.7898	-194.157	129.087	-3.92816	-172.42	110.583	-3.21892	-218.76	124.09	23.8931	-206.323	119.008	1.74183	-181.4	99.8936	1.61613	-227.892	100.951	24.8244	-214.449	94.0197	7.74672	-191.675	90.0488	6.26079	-232.649	111.328	68.7199	-233.182	108.45	95.5059	-214.327	129.043	88.1969	
46	0.383333	-173.787	115.764	92.9282	-152.088	104.118	73.7889	-144.791	100.778	53.0474	-143.976	94.2976	29.314	-177.465	150.009	40.9993	-165.295	146.875	16.9398	-153.835	122.292	5.40335	-197.069	146.41	28.821	-183.537	137.973	0.797094	-169.986	112.893	-0.711237	-217.151	129.956	28.5476	-200.958	129.781	5.11488	-185.186	108.007	-1.33913	-226.244	113.038	27.9213	-215.922	110.273	11.3338	-195.18	97.5277	7.72994	-223.633	121.333	72.2896	-228.273	110.619	97.5714	-203.944	130.035	92.4272	
47	0.391667	-170.209	105.868	95.024	-155.493	94.264	72.2351	-139.801	90.5557	51.5085	-137.188	83.8165	31.1591	-167.763	145.478	40.2319	-155.716	140.951	20.3354	-145.599	116.452	6.51011	-190.82	143.077	33.0678	-180.7	137.057	2.94632	-166.038	109.094	-0.412055	-208.897	134.511	27.7442	-195.69	131.513	7.16559	-182.111	108.288	-2.41799	-221.736	117.343	33.1197	-212.341	112.261	10.8517	-192.839	96.684	7.90511	-219.833	118.867	74.8081	-223.198	115.08	96.5904	-198.422	127.84	94.0615	
48	0.4	-172.531	96.4865	96.2945	-157.569	83.5834	72.3023	-142.028	78.6813	51.4232	-144.318	74.7596	28.4185	-163.614	137.392	42.2148	-153.662	132.241	17.1029	-147.233	108.848	3.44334	-187.266	138.15	32.4051	-173.184	132.913	3.73621	-164.634	102.792	-1.78212	-202.65	131.059	32.9406	-195.473	127.882	4.20337	-179.065	104.808	-1.74684	-222.151	118.658	30.0135	-209.768	112.895	9.60373	-196.605	97.9282	5.01582	-219.398	118.742	74.7279	-222.555	112.47	94.4269	-199.177	121.258	93.3842	
49	0.408333	-169.487	89.9474	91.9221	-159.807	76.8929	70.5428	-148.376	71.4174	49.8609	-145.015	66.075	26.4458	-162.104	130.738	38.8121	-151.329	123.165	14.9214	-147.341	101.721	2.44809	-184.216	134.847	31.0657	-176.165	128.382	3.10428	-172.552	96.1349	-6.51334	-204.176	129.42	30.7483	-192.936	124.63	4.56992	-185.582	102.567	-6.64772	-219.896	115.404	37.0142	-211.385	113.632	12.682	-200.191	92.7978	0.6126	-216.524	118.811	73.0538	-219.614	108.586	96.5951	-195.049	117.064	92.0929	
50	0.416667	-172.837	82.8248	94.0934	-158.999	70.42	68.0138	-150.936	64.5795	48.4163	-144.61	57.8168	25.9095	-162.18	122.387	41.6764	-155.487	118.367	11.5964	-148.63	96.8813	0.0377494	-185.222	127.996	29.5576	-177.334	122.802	0.597198	-174.768	94.8319	-9.68328	-203.793	123.062	31.4932	-196.316	118.295	1.70811	-186.352	94.4361	-8.18058	-221.618	111.375	30.6521	-216.786	107.306	9.53028	-201.398	91.1658	0.134953	-216.97	112.59	73.8107	-222.849	106.367	94.7517	-195.323	112.707	90.4093	
